<svg width="105" height="50" viewBox="0 0 105 50" fill="none" xmlns="http://www.w3.org/2000/svg">
<g clip-path="url(#clip0_43_2)">
<path d="M104.921 0.151855H102.211V49.7056H104.921V0.151855Z" fill="white"/>
<path d="M104.921 0H13.4014V2.76687H104.921V0Z" fill="white"/>
<path d="M21.4528 31.328V34.0948H10.4816V41.3333H7.47439V34.0948H0V31.328H21.4528ZM15.2285 28.9806H12.23V20.1266H1.25885V17.3597H13.585C13.8075 17.3435 14.0308 17.374 14.2413 17.4492C14.4517 17.5244 14.6449 17.6428 14.8089 17.7971C14.9576 17.9658 15.0714 18.1634 15.1435 18.3782C15.2156 18.5929 15.2445 18.8202 15.2285 19.0466V28.9806ZM16.4175 47.233H105V49.9999H15.045C14.8223 50.029 14.5962 50.0057 14.3838 49.9317C14.1714 49.8576 13.9784 49.7348 13.8197 49.5728C13.661 49.4108 13.5408 49.2138 13.4683 48.997C13.3958 48.7801 13.3729 48.5492 13.4015 48.3219V38.9056H16.4175V47.233ZM29.8801 34.0948C29.0489 34.0837 28.2295 33.8925 27.476 33.534C26.7225 33.1756 26.0521 32.6578 25.5091 32.0152C24.3996 30.4683 23.8553 28.5737 23.9705 26.66V24.3483H17.5364V21.5814H23.9705V10.7192H26.969V26.0263C26.969 29.1145 27.9394 30.8817 29.8626 31.328L29.8801 34.0948Z" fill="white"/>
<path d="M29.7842 34.0948V31.328H32.6428C35.3936 31.328 37.5325 30.6823 39.0594 29.3911C39.825 28.7222 40.4298 27.8824 40.8269 26.9369C41.2241 25.9913 41.403 24.9651 41.3498 23.9377V21.8849H33.9017V19.118H51.6391V21.8849H44.4358V23.9377C44.3797 24.9369 44.5429 25.9362 44.9135 26.8627C45.284 27.7892 45.8525 28.6194 46.5775 29.293C48.2711 30.6704 50.3935 31.38 52.557 31.2922V33.9699C50.5704 34.006 48.6033 33.5658 46.8136 32.6846C45.2051 31.8945 43.8476 30.657 42.8972 29.1144C41.9775 30.717 40.611 32.0035 38.972 32.8096C37.114 33.7232 35.0719 34.1787 33.01 34.1394L29.7842 34.0948ZM55.8266 10.7192H58.8251V19.118H63.9479V21.8849H58.8251V26.1423C58.7408 27.4957 59.0446 28.8449 59.6993 30.0248C60.0388 30.4804 60.4872 30.8394 61.0014 31.0675C61.5157 31.2957 62.0787 31.3854 62.6366 31.328H63.5108V34.0948H62.5579C61.6263 34.1615 60.6918 34.0185 59.8202 33.6762C58.9487 33.3338 58.1613 32.8003 57.5138 32.1134C56.3482 30.7924 55.7654 28.8378 55.7654 26.2494L55.8266 10.7192Z" fill="white"/>
<path d="M63.4316 34.095V31.3282H67.995C68.6143 31.3744 69.2358 31.2736 69.8107 31.0335C70.3855 30.7935 70.898 30.4208 71.3082 29.9447C72.1349 28.7494 72.5303 27.2985 72.4272 25.839V22.3314H67.5928V19.5645H75.4606V26.1425C75.4606 28.7071 74.8428 30.6736 73.6073 32.0422C72.917 32.753 72.0853 33.3042 71.1683 33.6583C70.2513 34.0125 69.2704 34.1614 68.2922 34.095H63.4316Z" fill="white"/>
<path d="M75.9067 34.095V31.3282H75.9854C76.6759 31.3786 77.3691 31.2817 78.0208 31.0435C78.6725 30.8053 79.2685 30.4311 79.7707 29.9447C80.7117 28.8018 81.1762 27.3277 81.0645 25.839V22.3314H76.8596V19.5645H84.098V26.1425C84.098 28.7071 83.4219 30.6736 82.0698 32.0422C81.2876 32.7632 80.3715 33.3165 79.3759 33.6691C78.3803 34.0217 77.3254 34.1666 76.2739 34.095H75.9067Z" fill="white"/>
<path d="M88.3464 10.7192H91.3449V19.118H96.459V21.8849H91.3449V26.1423C91.2612 27.4957 91.5649 28.8447 92.2191 30.0248C92.5612 30.4798 93.0112 30.8383 93.5267 31.0663C94.0422 31.2943 94.6061 31.3844 95.1651 31.328H96.0393V34.0948H95.0952C94.1623 34.1616 93.2265 34.0187 92.3535 33.6764C91.4805 33.3341 90.6916 32.8005 90.0423 32.1134C88.8767 30.7924 88.2939 28.8378 88.2939 26.2494L88.3464 10.7192Z" fill="white"/>
</g>
<defs>
<clipPath id="clip0_43_2">
<rect width="105" height="50" fill="white"/>
</clipPath>
</defs>
</svg>
